<?xml version="1.0" standalone="no"?>
<!DOCTYPE svg PUBLIC "-//W3C//DTD SVG 20010904//EN"
 "http://www.w3.org/TR/2001/REC-SVG-20010904/DTD/svg10.dtd">
<svg version="1.0" xmlns="http://www.w3.org/2000/svg"
 width="512.000000pt" height="512.000000pt" viewBox="0 0 512.000000 512.000000"
 preserveAspectRatio="xMidYMid meet">
<metadata>
Created by potrace 1.14, written by Peter Selinger 2001-2017
</metadata>
<g transform="translate(0.000000,512.000000) scale(0.100000,-0.100000)"
fill="#000000" stroke="none">
<path d="M2502 4770 c-27 -16 -803 -465 -917 -530 -43 -25 -643 -371 -811
-469 -86 -49 -145 -90 -151 -104 -6 -14 -9 -418 -8 -1117 1 -602 3 -1098 4
-1102 0 -4 11 -16 23 -28 43 -39 20 -49 482 218 l189 110 31 -18 c17 -9 103
-59 191 -110 88 -51 176 -102 195 -112 19 -11 39 -23 44 -25 7 -5 -71 -54
-215 -135 -202 -115 -296 -172 -306 -185 -7 -9 -13 -31 -13 -49 0 -26 7 -39
33 -57 58 -44 645 -377 664 -377 10 0 154 78 321 174 l302 174 110 -63 c60
-35 129 -75 152 -88 24 -13 110 -63 192 -111 82 -47 158 -86 168 -86 19 0 605
332 666 377 25 18 32 31 32 57 0 18 -6 39 -12 48 -11 14 -340 209 -491 291
-20 12 -34 24 -30 28 5 4 116 69 248 145 132 75 250 146 263 157 25 23 30 73
10 99 -7 9 -101 67 -208 128 -107 62 -208 120 -225 130 -16 10 -61 36 -100 58
l-70 40 -3 271 -2 272 22 -12 c13 -7 118 -67 233 -134 306 -178 293 -173 340
-132 l27 22 0 307 0 308 30 -16 c28 -14 163 -92 198 -113 126 -78 302 -171
323 -171 24 0 65 28 68 48 8 41 5 753 -3 774 -8 22 -60 56 -252 167 -132 76
-425 246 -651 376 -225 130 -428 247 -450 260 -22 12 -110 63 -195 112 -85 50
-203 118 -262 151 -58 34 -117 62 -130 62 -13 0 -38 -9 -56 -20z m-20 -1185
c0 -147 -2 -268 -4 -269 -2 -2 -414 -239 -528 -304 -36 -20 -358 -206 -485
-280 l-70 -41 -3 266 c-1 147 1 270 5 274 5 4 166 99 358 210 193 111 404 233
470 272 66 38 145 83 175 100 30 16 59 34 64 38 5 5 12 7 14 5 2 -3 4 -125 4
-271z m297 -1245 c113 -65 214 -125 225 -133 21 -15 18 -18 -94 -79 -25 -14
-85 -49 -135 -78 -49 -29 -110 -64 -135 -78 -25 -13 -50 -29 -57 -34 -7 -5
-18 -8 -26 -6 -13 3 -466 262 -463 264 13 14 455 264 465 264 8 0 107 -54 220
-120z"/>
</g>
</svg>
